<?xml version="1.0" standalone="no"?>
<!DOCTYPE svg PUBLIC "-//W3C//DTD SVG 20010904//EN"
 "http://www.w3.org/TR/2001/REC-SVG-20010904/DTD/svg10.dtd">
<svg version="1.0" xmlns="http://www.w3.org/2000/svg"
 width="512.000000pt" height="512.000000pt" viewBox="0 0 512.000000 512.000000"
 preserveAspectRatio="xMidYMid meet">

<g transform="translate(0.000000,512.000000) scale(0.100000,-0.100000)"
fill="#000000" stroke="none">
<path d="M1300 4146 c-170 -48 -290 -180 -322 -356 -22 -116 19 -259 102 -353
222 -252 644 -164 741 155 47 153 9 316 -100 431 -108 114 -277 163 -421 123z"/>
<path d="M3235 3130 c-200 -22 -365 -105 -461 -231 l-39 -50 -5 93 c-6 97 -17
130 -50 148 -11 6 -125 10 -294 10 l-275 0 -28 -24 -28 -24 -3 -1004 c-2 -742
1 -1010 9 -1031 22 -53 43 -57 333 -57 l265 0 28 24 28 24 6 579 c6 632 5 623
68 759 38 82 90 137 163 174 54 26 71 30 148 30 106 0 164 -18 224 -71 49 -43
86 -110 112 -204 15 -52 18 -136 23 -662 l6 -602 23 -23 c22 -23 27 -23 299
-26 197 -2 285 1 305 9 61 25 60 7 55 722 -3 447 -8 675 -16 726 -39 235 -103
389 -211 504 -114 122 -249 185 -443 206 -105 12 -137 12 -242 1z"/>
<path d="M1107 3076 c-14 -13 -29 -35 -32 -48 -3 -12 -4 -470 -3 -1015 l3
-993 28 -27 27 -28 262 -3 c281 -3 303 0 335 47 17 24 18 81 21 986 2 528 0
980 -3 1004 -5 30 -16 54 -35 73 l-28 28 -275 0 -274 0 -26 -24z"/>
</g>
</svg>
